<svg fill="#ff6900" xmlns="http://www.w3.org/2000/svg" id="Layer_1" height="512" viewBox="0 0 512 512" width="512"><path d="m166.753 64.476h45.892c6.616 0 11.999-5.383 11.999-12v-31.476c0-6.617-5.383-12-11.999-12h-45.892c-6.617 0-12 5.383-12 12v31.476c0 6.617 5.383 12 12 12zm2-41.476h41.891v27.476h-41.891zm87.863 41.476h95.206c6.617 0 12-5.383 12-12v-31.476c0-6.617-5.383-12-12-12h-95.206c-6.616 0-11.999 5.383-11.999 12v31.476c0 6.617 5.383 12 11.999 12zm2.001-41.476h91.205v27.476h-91.205zm40.738 65.409c-6.616 0-11.999 5.383-11.999 12v31.476c0 6.616 5.383 11.999 11.999 11.999h45.892c6.617 0 12-5.383 12-11.999v-31.476c0-6.617-5.383-12-12-12zm43.892 41.475h-41.891v-27.475h41.891zm147.753-120.884h-95.205c-6.617 0-12 5.383-12 12v31.476c0 6.617 5.383 12 12 12h95.205c6.617 0 12-5.383 12-12v-31.476c0-6.617-5.383-12-12-12zm-2 41.476h-91.205v-27.476h91.205zm-468 14h101.78c6.617 0 12-5.383 12-12v-31.476c0-6.617-5.383-12-12-12h-101.78c-6.617 0-12 5.383-12 12v31.476c0 6.617 5.383 12 12 12zm2-41.476h97.78v27.476h-97.78zm468 65.409h-101.78c-6.617 0-12 5.383-12 12v31.476c0 6.616 5.383 11.999 12 11.999h101.78c6.617 0 12-5.383 12-11.999v-31.476c0-6.617-5.383-12-12-12zm-2 41.475h-97.78v-27.475h97.78zm-468 14h95.205c6.617 0 12-5.383 12-11.999v-31.476c0-6.617-5.383-12-12-12h-95.205c-6.617 0-12 5.383-12 12v31.476c0 6.616 5.383 11.999 12 11.999zm2-41.475h91.205v27.475h-91.205zm137.178 41.475h95.206c6.616 0 11.999-5.383 11.999-11.999v-31.476c0-6.617-5.383-12-11.999-12h-95.206c-6.617 0-12 5.383-12 12v31.476c0 6.616 5.383 11.999 12 11.999zm2-41.475h91.205v27.475h-91.205zm304.374 125.582h-105.593c-19.66-37.976-59.327-63.991-104.959-63.991s-85.299 26.015-104.959 63.991h-105.593c-20.097 0-36.448 16.351-36.448 36.448v35.338c0 20.097 16.351 36.447 36.448 36.447h105.592c19.66 37.976 59.327 63.991 104.959 63.991 24.438 0 47.166-7.461 66.026-20.224l19.236 19.237c-1.862 7.076-.046 14.927 5.49 20.464l77.102 77.102c4.144 4.143 9.585 6.214 15.026 6.214s10.883-2.071 15.026-6.214l16.778-16.779c8.284-8.286 8.284-21.768 0-30.053l-77.102-77.102c-5.537-5.536-13.389-7.353-20.464-5.49l-19.236-19.236c2.583-3.817 4.945-7.794 7.076-11.909h105.592c20.098 0 36.448-16.351 36.448-36.447v-35.338c.003-20.098-16.348-36.449-36.445-36.449zm-421.104 94.234c-12.378 0-22.448-10.07-22.448-22.448v-35.338c0-12.378 10.07-22.448 22.448-22.448h99.464c-4.539 12.531-7.02 26.039-7.02 40.117s2.48 27.586 7.019 40.116h-99.463zm106.445-40.117c0-57.405 46.702-104.108 104.107-104.108s104.107 46.703 104.107 104.108-46.702 104.108-104.107 104.108-104.107-46.702-104.107-104.108zm226.665 98.533c1.856 0 3.713.706 5.126 2.12l77.102 77.102c2.827 2.826 2.827 7.427 0 10.253l-16.778 16.778c-2.826 2.828-7.426 2.828-10.252 0l-77.102-77.102c-2.827-2.826-2.827-7.426 0-10.252l16.778-16.779c1.413-1.414 3.269-2.12 5.126-2.12zm-17.387-5.419-12.057 12.057-15.883-15.883c4.301-3.726 8.332-7.756 12.057-12.057zm127.829-75.445c0 12.378-10.07 22.447-22.448 22.447h-99.463c4.539-12.53 7.019-26.039 7.019-40.116 0-14.078-2.48-27.586-7.02-40.117h99.464c12.378 0 22.448 10.07 22.448 22.448zm-233-109.354c-50.555 0-91.685 41.13-91.685 91.686 0 50.555 41.13 91.685 91.685 91.685s91.685-41.13 91.685-91.685c0-50.556-41.13-91.686-91.685-91.686zm0 169.37c-42.835 0-77.685-34.85-77.685-77.685 0-42.836 34.85-77.686 77.685-77.686s77.685 34.85 77.685 77.686c0 42.835-34.85 77.685-77.685 77.685z"></path></svg>