<svg fill="#ff6900" xmlns="http://www.w3.org/2000/svg" id="Layer_1" height="512" viewBox="0 0 512 512" width="512"><path d="m329.9 169.7c9.6 11.4 9.6 30 0 41.4 10.6-4 19.8-11.4 27-20.7-7.1-9.2-16.3-16.7-27-20.7zm-35 41.4c-9.6-11.4-9.6-30 0-41.4-10.6 4-19.8 11.4-27 20.7 7.2 9.3 16.4 16.7 27 20.7zm23.1-30.8c-6-7.7-14.2-.3-14.2 10.1 0 10.3 8.2 17.7 14.2 10.1 4.2-5.4 4.2-14.8 0-20.2zm-5.5-29.7c25.2 0 47 14.6 61 35.4 1.9 2.8 1.7 6.4-.1 9-7.3 10.9-16.5 19.7-27 25.9-21.5 12.6-46.4 12.6-67.8 0-10.5-6.2-19.7-15.1-27-26-1.9-2.8-1.8-6.4.1-9 7.3-10.9 16.5-19.7 27-25.9 10.1-6.1 21.6-9.4 33.8-9.4zm69.9-14.4c.4.4.7.8 1 1.3 14.4 19.3 19.8 42.7 16.8 64.9-6.6 48.4-51.3 82.4-99.7 75.8s-82.4-51.3-75.8-99.7 51.3-82.4 99.7-75.8c22.2 3 43.3 14.4 58 33.5zm2 64.1c5.4-39.7-22.3-76.3-62.1-81.8-39.8-5.4-76.3 22.4-81.8 62.1-5.4 39.7 22.3 76.3 62.1 81.8 39.8 5.4 76.4-22.4 81.8-62.1zm11.5 77.8 4.3-4.3-7.5-7.5c-3.1-3.1-3.1-8-.2-11.1l2-2.5c34.4-45.3 25.5-109.8-19.7-144.2s-109.8-25.6-144.2 19.7c-9.5 12.5-15.7 26.5-18.7 40.9-.1.4-.1.8-.3 1.2-1.7 8.5-2.3 17.1-1.8 25.6l.8 8.5c7.1 51.7 51.6 89.9 103.7 89 6.6-.1 13.2-.9 19.6-2.2.5-.1 1-.3 1.5-.3 10.3-2.4 20.3-6.3 29.6-11.8.4-.3.8-.5 1.2-.7 4-2.4 7.9-5.2 11.5-8.2 3.2-2.6 7.9-2.4 10.7.5zm16.5-14.6c6.5-2.7 14.2-1.4 19.4 3.8l52 52c6.9 6.9 6.9 18.2 0 25.1l-17.3 17.3c-6.9 6.9-18.2 6.9-25.1 0l-52-52c-5.2-5.2-6.5-12.8-3.9-19.4l-3.5-3.5c-1.5 1-2.9 2.1-4.4 3v75.9h10.2c4.4 0 8 3.6 8 8v29.9c0 19.5-14.7 36.7-34 36.7h-304.8c-19.3 0-34-17.2-34-36.7v-29.9c0-4.4 3.6-8 8-8h10.2v-169.4c0-18.6 12.9-36.2 31.4-36.2h124.9c12.3-46.7 51.6-81 98.9-87.4 65-8.9 125 36.7 133.8 101.7 4 29.2-2.8 59.9-21.4 85.5zm5.6 15.1-17.3 17.4c-.7.7-.7 1.8 0 2.5l52 52c.7.7 1.8.7 2.5 0l17.3-17.3c.7-.7.7-1.8 0-2.5l-52-52c-.7-.7-1.8-.7-2.5-.1zm-56.5 20.1c-5.6 2.6-11.4 4.6-17.3 6.3v41.3c0 4.4-3.6 8-8 8h-253.7c-4.4 0-8-3.6-8-8v-149.4c0-4.4 3.6-8 8-8h111.1c.1-4.3.3-8.6.9-12.8h-121.9c-9.2 0-15.4 10.5-15.4 20.2v169.5h73.4c2.8 0 5.2 1.4 6.7 3.5l9.6 12.7h124.6l8.3-12.6c1.5-2.3 4.1-3.6 6.7-3.6h75zm-33.2 9.5c-65.5 8.8-125.7-37.6-133.8-103.4h-104v133.3h237.8zm-154.6-57.4c0-4.4 3.6-8 8-8s8 3.6 8 8v66.5c0 4.4-3.6 8-8 8s-8-3.6-8-8zm-34.6 9.9c0-4.4 3.6-8 8-8s8 3.6 8 8v56.6c0 4.4-3.6 8-8 8s-8-3.6-8-8zm-34.6 24.2c0-4.4 3.6-8 8-8s8 3.6 8 8v32.4c0 4.4-3.6 8-8 8s-8-3.6-8-8zm-65.5 96.9v21.9c0 10.7 7.5 20.7 18 20.7h304.7c10.5 0 18-10 18-20.7v-21.9c-29.7 0-59.3 0-89 0l-7.9 12c-1.4 2.5-4 4.3-7.1 4.3h-132.7c-2.4 0-4.8-1.1-6.4-3.2l-9.9-13.1c-29.3 0-58.5 0-87.7 0z"></path></svg>