<svg fill="#ff6900" xmlns="http://www.w3.org/2000/svg" id="Layer_1" viewBox="0 0 512 512"><path d="m477.21 36.954h-442.42c-18.632 0-33.79 15.158-33.79 33.79v310.45c0 18.631 15.158 33.789 33.79 33.789h114.205l-24.48 42.008c-2.193 3.765-2.221 8.242-.074 11.979 2.154 3.748 6.158 6.076 10.449 6.076h242.22c4.291 0 8.295-2.328 10.448-6.075 2.147-3.736 2.12-8.214-.073-11.979l-24.479-42.009h114.204c18.632 0 33.79-15.158 33.79-33.789v-310.45c0-18.632-15.158-33.79-33.79-33.79zm-442.42 16h442.42c9.81 0 17.79 7.98 17.79 17.79v285.058h-253.024v-121.727c0-4.418-3.582-8-8-8h-31.368c-4.418 0-8 3.582-8 8v121.727h-7.409v-93.013c0-4.418-3.582-8-8-8h-31.368c-4.418 0-8 3.582-8 8v93.013h-7.409v-64.296c0-4.418-3.582-8-8-8h-31.369c-4.418 0-8 3.582-8 8v64.296h-7.409v-35.582c0-4.418-3.582-8-8-8h-31.368c-4.418 0-8 3.582-8 8v35.582h-13.276v-285.058c0-9.809 7.98-17.79 17.79-17.79zm191.186 302.848h-15.368v-113.727h15.368zm-54.777 0h-15.368v-85.013h15.368zm-54.778 0h-15.368v-56.296h15.368zm-54.777 0h-15.368v-27.582h15.368zm308.52 103.244h-228.328l25.678-44.062h176.973zm107.046-60.063h-442.42c-9.81 0-17.79-7.98-17.79-17.789v-9.393h478v9.393c0 9.809-7.98 17.789-17.79 17.789zm-375.51-193.786c39.383 0 71.424-32.04 71.424-71.423s-32.041-71.423-71.424-71.423-71.424 32.041-71.424 71.424 32.041 71.422 71.424 71.422zm0-16c-9.604 0-18.643-2.458-26.526-6.774l12.704-16.919c4.237 1.853 8.91 2.888 13.822 2.888 11.342 0 21.427-5.483 27.745-13.937l19.423 8.379c-9.774 15.806-27.259 26.363-47.168 26.363zm0-74.043c10.267 0 18.619 8.353 18.619 18.619s-8.353 18.619-18.619 18.619-18.619-8.353-18.619-18.619 8.352-18.619 18.619-18.619zm55.424 18.62c0 4.972-.668 9.788-1.902 14.376l-19.433-8.383c.342-1.948.53-3.949.53-5.994 0-16.335-11.376-30.054-26.619-33.676v-21.161c26.782 3.89 47.424 26.995 47.424 54.838zm-63.424-54.838v21.162c-15.243 3.621-26.619 17.341-26.619 33.676 0 8.402 3.011 16.113 8.008 22.115l-12.699 16.912c-9.953-10.024-16.114-23.818-16.114-39.027 0-27.843 20.641-50.948 47.424-54.838zm83.643 95.343 27.329 5.411c2.263.448 4.222 1.851 5.374 3.848 1.153 1.997 1.389 4.395.646 6.578l-8.978 26.373c-1.133 3.328-4.242 5.424-7.572 5.424-.855 0-1.725-.138-2.579-.429-4.183-1.424-6.419-5.969-4.995-10.151l2.119-6.226-130.214 75.179c-1.26.728-2.636 1.073-3.992 1.073-2.766 0-5.454-1.435-6.936-4.001-2.21-3.826-.898-8.719 2.928-10.928l130.214-75.179-6.451-1.277c-4.334-.858-7.152-5.067-6.294-9.401.857-4.335 5.071-7.147 9.401-6.294zm70.931 15.945h39.652c4.418 0 8-3.582 8-8 0-35.343 28.754-64.096 64.097-64.096s64.096 28.753 64.096 64.096c0 4.418 3.582 8 8 8h39.653c4.418 0 8-3.582 8-8 0-66.03-53.719-119.749-119.749-119.749s-119.749 53.719-119.749 119.749c0 4.418 3.582 8 8 8zm119.749-111.44c13.085 1.003 25.499 4.443 36.786 9.868l-11.87 20.559c-7.733-3.5-16.117-5.803-24.916-6.68zm-16 23.747c-8.799.876-17.183 3.18-24.917 6.68l-11.87-20.559c11.288-5.425 23.701-8.865 36.787-9.868zm87.699 71.693c-.876-8.8-3.185-17.183-6.685-24.917l20.556-11.868c5.425 11.288 8.871 23.699 9.874 36.785zm5.848-50.628-20.57 11.875c-5.057-7.009-11.216-13.166-18.225-18.224l11.875-20.571c10.538 7.245 19.676 16.382 26.92 26.92zm-144.175-26.919 11.876 20.57c-7.009 5.057-13.169 11.215-18.226 18.224l-20.569-11.875c7.244-10.538 16.381-19.675 26.919-26.919zm-34.942 40.761 20.555 11.867c-3.5 7.734-5.809 16.118-6.686 24.918h-23.742c1.002-13.085 4.449-25.496 9.873-36.785zm146.511 14.22c-2.208-3.825-7.099-5.139-10.928-2.928l-24.794 14.315c-4.569-4.107-10.607-6.611-17.219-6.611-14.221 0-25.79 11.569-25.79 25.789s11.569 25.789 25.79 25.789c14.22 0 25.789-11.569 25.789-25.789 0-1.827-.194-3.609-.557-5.33l24.782-14.308c3.826-2.208 5.137-7.101 2.927-10.927zm-52.941 40.355c-5.398 0-9.79-4.392-9.79-9.789s4.392-9.789 9.79-9.789c5.397 0 9.789 4.392 9.789 9.789s-4.392 9.789-9.789 9.789zm85.576 130.711c0 4.418-3.582 8-8 8h-155.152c-4.418 0-8-3.582-8-8s3.582-8 8-8h155.152c4.418 0 8 3.582 8 8zm0-37.654c0 4.418-3.582 8-8 8h-155.152c-4.418 0-8-3.582-8-8s3.582-8 8-8h155.152c4.418 0 8 3.582 8 8zm0-37.653c0 4.418-3.582 8-8 8h-155.152c-4.418 0-8-3.582-8-8s3.582-8 8-8h155.152c4.418 0 8 3.582 8 8z"></path></svg>