<svg fill="#ff6900" xmlns="http://www.w3.org/2000/svg" id="Layer_1" height="512" viewBox="0 0 66 66" width="512"><g><g><path d="m16.9 35.9c33.6-.1-1.4-.1 32.1 0 5.5 0 9.9-4.5 9.9-9.9 0-5.5-4.4-9.9-9.9-9.9-1.1 0-28.8 0-32.1 0-5.4-.1-9.9 4.3-9.9 9.8s4.5 10 9.9 10zm32.2-17.9c4.4 0 7.9 3.5 7.9 7.9s-3.6 7.9-7.9 7.9h-15.1c-5.7 0-9.6-5.9-7.2-11.2h3.1c-2.7 3.4-.3 8.5 4.1 8.5h15.1c2.9 0 5.2-2.3 5.2-5.2s-2.3-5.2-5.2-5.2h-8.6c-.7-1.1-1.5-2-2.5-2.7zm-24.5 11.2h-7.7c-1.8 0-3.2-1.5-3.2-3.2 0-1.8 1.5-3.2 3.2-3.2h7.7c-.7 2-.7 4.1 0 6.4zm8.4-.2c-3-1-3-5.1 0-6.1 3 .9 3 5.1 0 6.1zm8.4.2c.7-2.1.8-4.3 0-6.5h7.7c1.8 0 3.2 1.5 3.2 3.2 0 1.8-1.5 3.2-3.2 3.2h-7.7zm-24.5-11.2h15.1c5.7 0 9.6 5.9 7.2 11.2h-3.1c2.3-3 .8-7.4-2.9-8.3-.8-.2.3-.1-16.3-.2-2.9 0-5.2 2.3-5.2 5.2s2.3 5.2 5.2 5.2h8.6c.6 1 1.5 1.9 2.4 2.7-1.7 0-9.4 0-11.1 0-4.4 0-7.9-3.6-7.9-7.9.1-4.4 3.7-7.9 8-7.9z"></path></g><g><path d="m62 2.4h-58c-1.7 0-3 1.3-3 3v43c0 1.7 1.3 3 3 3h19.1v5.7l-2.6 3.2c-1.1 1.3-.1 3.3 1.6 3.3h21.8c1.7 0 2.6-1.9 1.6-3.3l-2.6-3.2v-5.7h19.1c1.7 0 3-1.3 3-3v-43c0-1.6-1.3-3-3-3zm-58 2h58c.6 0 1 .4 1 1v34.3h-60v-34.3c0-.5.4-1 1-1zm39.9 57.2h-21.8l2.5-3.1h16.8zm-3-5.1h-15.8v-5.1h15.7v5.1zm21.1-7.1c-6.2 0-52.3 0-58 0-.6 0-1-.4-1-1v-6.7h60v6.7c0 .6-.4 1-1 1z"></path></g><g><path d="m30 44.6h6v2h-6z"></path></g><g><path d="m16 44.6h2v2h-2z"></path></g><g><path d="m9 44.6h2v2h-2z"></path></g><g><path d="m33 12.5c.6 0 1-.4 1-1v-3.3c0-.6-.4-1-1-1s-1 .4-1 1v3.3c0 .6.4 1 1 1z"></path></g><g><path d="m37.4 13.1c.5.2 1.1 0 1.3-.5l1.5-3.1c.2-.5 0-1.1-.5-1.3s-1.1 0-1.3.5l-1.4 3.1c-.3.5-.1 1.1.4 1.3z"></path></g><g><path d="m27.2 12.6c.2.5.8.7 1.3.5s.7-.8.5-1.3l-1.5-3.1c-.2-.5-.8-.7-1.3-.5s-.7.8-.5 1.3z"></path></g></g></svg>