<svg fill="#ff6900" xmlns="http://www.w3.org/2000/svg" id="Layer_1_1_" height="512" viewBox="0 0 64 64" width="512"><path d="m32 49c9.374 0 17-7.626 17-17s-7.626-17-17-17-17 7.626-17 17 7.626 17 17 17zm0-32c8.271 0 15 6.729 15 15s-6.729 15-15 15-15-6.729-15-15 6.729-15 15-15z"></path><path d="m38 39h4c.552 0 1-.448 1-1v-13c0-.552-.448-1-1-1h-4c-.552 0-1 .448-1 1v13c0 .552.448 1 1 1zm1-13h2v11h-2z"></path><path d="m30 39h4c.552 0 1-.448 1-1v-10c0-.552-.448-1-1-1h-4c-.552 0-1 .448-1 1v10c0 .552.448 1 1 1zm1-10h2v8h-2z"></path><path d="m26 39c.552 0 1-.448 1-1v-6c0-.552-.448-1-1-1h-4c-.552 0-1 .448-1 1v6c0 .552.448 1 1 1zm-3-6h2v4h-2z"></path><path d="m11.877 25.78c-.196.68-.69 1.208-1.322 1.413l-2.68.871c-.371.121-.637.445-.684.832-.127 1.061-.191 2.105-.191 3.104s.064 2.043.192 3.104c.046.387.313.711.684.832l2.68.871c.632.205 1.126.734 1.322 1.414.097.336.202.669.314.999.232.684.128 1.433-.28 2.003l-1.598 2.234c-.225.315-.249.731-.06 1.07 1.021 1.825 2.267 3.522 3.702 5.044.272.289.687.388 1.059.257l2.417-.849c.617-.216 1.301-.094 1.829.326.264.21.533.414.806.611.562.404.892 1.068.884 1.776l-.028 2.441c-.004.392.22.75.574.917 1.91.9 3.935 1.551 6.017 1.935.059.01.119.015.179.015.327 0 .638-.161.826-.437l1.294-1.898c.383-.562 1.014-.861 1.672-.872.342.009.686.009 1.03 0 .666-.037 1.288.31 1.671.872l1.293 1.898c.223.328.617.493 1.008.42 2.082-.384 4.106-1.035 6.017-1.935.354-.167.578-.525.574-.916l-.028-2.441c-.008-.708.322-1.372.883-1.776.273-.197.542-.4.806-.61.528-.42 1.211-.544 1.83-.326l2.417.849c.372.13.788.031 1.059-.257 1.435-1.521 2.68-3.218 3.701-5.044.189-.338.166-.755-.059-1.07l-1.598-2.234c-.408-.57-.513-1.319-.28-2.003.112-.33.217-.663.314-.999.196-.68.69-1.208 1.322-1.413l2.68-.871c.371-.121.637-.445.684-.832.127-1.062.191-2.106.191-3.105s-.064-2.043-.192-3.104c-.046-.387-.313-.711-.684-.832l-2.68-.871c-.632-.205-1.126-.734-1.322-1.414-.097-.336-.202-.669-.314-.999-.232-.684-.128-1.433.28-2.003l1.598-2.234c.225-.315.249-.731.06-1.07-1.021-1.825-2.267-3.522-3.702-5.044-.271-.288-.688-.389-1.059-.257l-2.417.849c-.616.218-1.3.095-1.829-.326-.264-.21-.533-.414-.806-.611-.562-.404-.892-1.068-.884-1.776l.028-2.441c.004-.392-.22-.75-.574-.917-1.91-.9-3.935-1.551-6.017-1.935-.388-.07-.785.094-1.007.42l-1.294 1.898c-.383.562-1.001.874-1.672.872-.342-.009-.686-.009-1.03 0-.687.016-1.288-.31-1.671-.872l-1.293-1.898c-.223-.327-.616-.492-1.008-.42-2.082.384-4.106 1.035-6.017 1.935-.354.167-.578.525-.574.916l.028 2.441c.008.708-.322 1.372-.883 1.776-.273.197-.542.4-.806.61-.528.42-1.212.542-1.83.326l-2.417-.849c-.373-.131-.788-.03-1.059.257-1.435 1.521-2.68 3.218-3.701 5.044-.189.338-.166.755.059 1.07l1.598 2.234c.408.57.512 1.319.279 2.003-.108.333-.213.666-.311 1.002zm1.662-4.165-1.224-1.711c.768-1.291 1.66-2.506 2.659-3.626l1.794.63c1.271.446 2.668.203 3.738-.648.239-.19.482-.374.729-.552 1.089-.785 1.73-2.064 1.714-3.422l-.021-1.789c1.385-.605 2.83-1.07 4.31-1.387l.92 1.351c.768 1.127 2.036 1.773 3.374 1.745.311-.007.624-.007.932 0 1.354.043 2.607-.618 3.374-1.745l.922-1.351c1.481.317 2.926.782 4.311 1.387l-.021 1.789c-.015 1.358.626 2.637 1.715 3.422.247.178.49.362.729.552 1.071.852 2.468 1.095 3.739.648l1.794-.63c1 1.12 1.891 2.336 2.659 3.626l-1.224 1.71c-.782 1.093-.986 2.517-.546 3.81.102.301.197.604.286.911.38 1.318 1.362 2.35 2.625 2.761l2.064.67c.072.764.109 1.513.109 2.234s-.037 1.47-.11 2.234l-2.063.67c-1.264.41-2.245 1.442-2.626 2.761-.088.307-.184.61-.286.91-.44 1.292-.235 2.717.546 3.81l1.223 1.711c-.768 1.291-1.66 2.506-2.659 3.626l-1.794-.63c-1.273-.447-2.668-.204-3.738.648-.239.19-.482.374-.729.552-1.089.785-1.73 2.064-1.714 3.422l.021 1.789c-1.385.605-2.83 1.07-4.31 1.387l-.92-1.351c-.749-1.099-1.967-1.746-3.273-1.746-.034 0-.067 0-.101.001-.311.007-.624.007-.932 0-1.362-.031-2.607.618-3.374 1.745l-.921 1.351c-1.481-.317-2.926-.782-4.311-1.387l.021-1.789c.015-1.358-.626-2.637-1.715-3.422-.247-.178-.49-.362-.729-.552-1.071-.852-2.468-1.096-3.739-.648l-1.794.63c-1-1.12-1.891-2.336-2.659-3.626l1.224-1.71c.782-1.093.986-2.517.546-3.81-.102-.301-.197-.604-.286-.911-.38-1.318-1.362-2.35-2.625-2.761l-2.064-.67c-.072-.764-.109-1.513-.109-2.234s.037-1.47.11-2.234l2.064-.67c1.264-.411 2.245-1.443 2.625-2.761.088-.307.184-.61.286-.91.44-1.292.236-2.717-.546-3.81z"></path><path d="m61.684 20.051-1.915.638c-4.574-11.214-15.591-18.689-27.769-18.689-12.529 0-23.849 7.899-28.167 19.655l1.877.689c4.031-10.972 14.596-18.344 26.29-18.344 11.323 0 21.57 6.923 25.869 17.323l-2.185.728c-.347.116-.604.413-.668.773-.064.361.074.728.36.957l5 4c.18.144.4.219.624.219.121 0 .242-.021.357-.066.331-.127.571-.42.629-.77l1-6c.058-.346-.07-.697-.337-.925s-.633-.3-.965-.188zm-1.39 5.103-2.234-1.787 2.681-.893z"></path><path d="m2.165 42.986 1.808-.301c4.412 11.565 15.622 19.315 28.027 19.315 12.529 0 23.849-7.899 28.167-19.655l-1.877-.689c-4.031 10.972-14.596 18.344-26.29 18.344-11.443 0-21.788-7.068-26.005-17.652l2.169-.362c.35-.058.643-.298.77-.629.126-.332.068-.705-.153-.982l-4-5c-.229-.287-.597-.427-.957-.36-.36.064-.657.321-.773.668l-2 6c-.111.333-.04.699.188.966.193.225.471.351.761.351.055 0 .109-.004.165-.014zm2.202-4.926 1.787 2.234-2.68.447z"></path></svg>