<svg fill="#ff6900"  xmlns="http://www.w3.org/2000/svg" data-name="Layer 1" id="Layer_1" viewBox="0 0 64 64"><title></title><path d="M62,23H34a1,1,0,0,0-1,1v6.72l-2.49-.62L27.8,27.38l.2-.2c3.49-3.79,3-10,3-10.18,3.67,0,6.32-1,7.26-2.77a3.51,3.51,0,0,0-.43-3.79A5.08,5.08,0,0,0,33.49,8c-.11,0-.22,0-.33,0A1,1,0,0,0,33,8H29.89a7.88,7.88,0,0,0-6.18-6.7A1,1,0,0,0,23,1c-.36,0-.71,0-1,.05S21.34,1,21,1C10.56,1,9,6,9,9v5a3.2,3.2,0,0,0,.85,2.13A4.47,4.47,0,0,0,9,19a3.81,3.81,0,0,0,3.24,3.93,11.22,11.22,0,0,0,1.9,3.51l-3.85,3.85a1,1,0,0,0,.07,1.48l.25.21L6.29,36.29C5.85,36.73,2,40.68,2,44a1,1,0,0,0,.11.45l5,10a1,1,0,0,0,.62.51,9.87,9.87,0,0,0,2.33.3,1,1,0,0,0,.05.19l0,.07A1,1,0,0,0,10,56v5a1,1,0,0,0,2,0V58.24C13.51,60,15.89,62,19,62s8.79-2,13.8-3.85l2.53-.91c.22-.08.45-.13.67-.2v4a1,1,0,0,0,2,0V56.5a18.1,18.1,0,0,1,5-.5h7c1.71,0,4-.64,4.69-2.44A4.13,4.13,0,0,0,55,52h7a1,1,0,0,0,1-1V24A1,1,0,0,0,62,23ZM51,25v5.38l-2.55-1.28a1,1,0,0,0-.89,0L45,30.38V25ZM21.93,30.63l0-.06-.06-.1a1,1,0,0,0-.17-.2l0-.06,0,0,0,0L21.29,30a10.66,10.66,0,0,0,3.17-.53l-.4,1.19L23,33.31Zm4.76-1.53,2.1,2.1-1,1.91-1.72-2.29ZM28.47,10a10.9,10.9,0,0,0-2.3,2.45C24.54,14.89,23,15,23,15H17.69a10.77,10.77,0,0,0,1.15-1.45C20,11.79,22.16,10,24,10Zm7.7,1.55a1.69,1.69,0,0,1,.33,1.74C36.08,14.08,34.38,15,31,15l-.09,0a16,16,0,0,0-.74-3.78A6.14,6.14,0,0,1,33.49,10,3.09,3.09,0,0,1,36.17,11.55ZM11,9c0-3.6,2.87-5.13,6.18-5.7A8.69,8.69,0,0,0,15,9a1,1,0,0,0,1,1h0a1,1,0,0,0,1-1c0-.58.19-5.39,5.05-5.95,4.32.42,5.51,3.35,5.83,4.94H24c-2.67,0-5.36,2.23-6.83,4.45C15.54,14.89,14,15,14,15H12a.91.91,0,0,1-1-1Zm2,12a1.88,1.88,0,0,1-2-2c0-1.83.84-2,1-2h2a2.94,2.94,0,0,0,.61-.08A1,1,0,0,0,15,17h8c.26,0,2.6-.1,4.83-3.45a7.8,7.8,0,0,1,.68-.85A17.89,17.89,0,0,1,29,17.08c0,.06.42,5.61-2.48,8.75A7.17,7.17,0,0,1,21,28c-.05,0-5.27-.07-7-6.27A1,1,0,0,0,13,21Zm2.13,7.29,4.41,2.94-2.68,3.35-4.38-3.65ZM4,43.78c.17-2.11,2.7-5.08,3.7-6.08l4.44-4.44,4.21,3.51A1,1,0,0,0,17,37h.1a1,1,0,0,0,.68-.37L20.71,33l1.36,3.41a1,1,0,0,0,1.86,0L25.27,33,27.2,35.6a1,1,0,0,0,.89.4,1,1,0,0,0,.8-.55l1.64-3.28,2.46.62V48.66c-1.53.49-3.28,1.08-5.24,1.73-1.54.52-3,1-4.37,1.45a4,4,0,0,1-4.64-1.68L18,49a1,1,0,0,0-.13-.47l-3-5a1,1,0,0,0-1.71,1l2.77,4.62c-1.57,4.67-5.87,4.26-7.23,4Zm48.83,9c-.31.78-1.7,1.2-2.84,1.2H43.07a22.34,22.34,0,0,0-8.4,1.36l-2.55.91C27.51,57.93,21.77,60,19,60c-3.52,0-6-3.6-6.82-4.94a7.21,7.21,0,0,0,5-3.73A6,6,0,0,0,24,53.74c1.33-.43,2.85-.94,4.4-1.46C32.75,50.82,38.16,49,39.61,49h7a1,1,0,0,1,1,1H45a1,1,0,0,0,0,2h7a3.1,3.1,0,0,1,1,.17A2.19,2.19,0,0,1,52.84,52.8ZM61,50H53a1,1,0,0,0-.27.06A5.37,5.37,0,0,0,52,50H49.59a3,3,0,0,0-3-3h-7A20,20,0,0,0,35,48V25h8v7a1,1,0,0,0,1.45.89L48,31.12l3.55,1.78A1,1,0,0,0,53,32V25h8Z"></path><path d="M43,43H39a1,1,0,0,0,0,2h4a1,1,0,0,0,0-2Z"></path><path d="M39,42h2a1,1,0,0,0,0-2H39a1,1,0,0,0,0,2Z"></path></svg>