<svg fill="#ff6900"  xmlns="http://www.w3.org/2000/svg" viewBox="0 0 64 64" width="512" height="512"><g id="Give_Time" data-name="Give Time"><path d="M61.68749,26.45117a4.31606,4.31606,0,0,0-4.49315.21778L42.6936,36.33582A4.99223,4.99223,0,0,0,38,33H17a.99928.99928,0,0,0-.707.293L10,39.58594,8.707,38.293a.99962.99962,0,0,0-1.41406,0l-5,5a.99962.99962,0,0,0,0,1.41406L3.58594,46,.293,49.293A.99989.99989,0,1,0,1.707,50.707L5,47.41406,16.58594,59l-3.293,3.293A.99989.99989,0,1,0,14.707,63.707L18,60.41406l1.293,1.293a.99963.99963,0,0,0,1.41406,0l5-5a.99962.99962,0,0,0,0-1.41406L24.41406,54l3-3H39a.99713.99713,0,0,0,.59961-.2002L62.25,33.813A4.40069,4.40069,0,0,0,64,30.311,4.31452,4.31452,0,0,0,61.68749,26.45117ZM20,59.58594,4.41406,44,8,40.41406,23.58594,56ZM61.0498,32.21338,38.667,49H27a.99928.99928,0,0,0-.707.293L23,52.58594,11.41406,41l6-6H38a3,3,0,0,1,0,6H25a1,1,0,0,0,0,2H38a4.98975,4.98975,0,0,0,4.942-4.42615L58.30371,28.333A2.37743,2.37743,0,0,1,62,30.311,2.39148,2.39148,0,0,1,61.0498,32.21338Z"></path><path d="M21.14063,31a1.00042,1.00042,0,0,0,.89062-1.45264A18.71568,18.71568,0,0,1,20,21a19,19,0,0,1,38,0,17.38509,17.38509,0,0,1-.09375,1.86426.99977.99977,0,1,0,1.98828.21191A19.28989,19.28989,0,0,0,60,21a21,21,0,0,0-42,0,20.68975,20.68975,0,0,0,2.248,9.45264A.99817.99817,0,0,0,21.14063,31Z"></path><path d="M54.30273,25.80176a1.001,1.001,0,0,0,1.209-.73487A17.00235,17.00235,0,1,0,22,21a16.98655,16.98655,0,0,0,2.93164,9.56055,1,1,0,1,0,1.65625-1.1211A15.004,15.004,0,1,1,54,21a15.20186,15.20186,0,0,1-.43164,3.59326A1.0002,1.0002,0,0,0,54.30273,25.80176Z"></path><path d="M39,11a.99974.99974,0,0,0,1-1V9a1,1,0,0,0-2,0v1A.99974.99974,0,0,0,39,11Z"></path><path d="M32.5,9.74219a.9993.9993,0,0,0-.36621,1.36572l.5.86572a1.00016,1.00016,0,0,0,1.73242-1l-.5-.86572A.99936.99936,0,0,0,32.5,9.74219Z"></path><path d="M29.97363,14.63379l-.86621-.5a1.00016,1.00016,0,1,0-1,1.73242l.86621.5a1.00016,1.00016,0,1,0,1-1.73242Z"></path><path d="M29,21a.99974.99974,0,0,0-1-1H27a1,1,0,0,0,0,2h1A.99974.99974,0,0,0,29,21Z"></path><path d="M28.6084,28a.99443.99443,0,0,0,.499-.13379l.86621-.5a1.00016,1.00016,0,1,0-1-1.73242l-.86621.5A1,1,0,0,0,28.6084,28Z"></path><path d="M44.13379,31.89209a1.0001,1.0001,0,0,0,.86719.5,1.00049,1.00049,0,0,0,.86523-1.5l-.5-.86572a1.00016,1.00016,0,0,0-1.73242,1Z"></path><path d="M48.02637,27.36621l.86621.5a1.00016,1.00016,0,0,0,1-1.73242l-.86621-.5a1.00016,1.00016,0,1,0-1,1.73242Z"></path><path d="M52,21a.99974.99974,0,0,0-1-1H50a1,1,0,0,0,0,2h1A.99974.99974,0,0,0,52,21Z"></path><path d="M48.52734,16.5a.99446.99446,0,0,0,.499-.13379l.86621-.5a1.00016,1.00016,0,1,0-1-1.73242l-.86621.5a1,1,0,0,0,.501,1.86621Z"></path><path d="M45.5,9.74219a.99868.99868,0,0,0-1.36621.36572l-.5.86572a1.00016,1.00016,0,0,0,1.73242,1l.5-.86572A.9993.9993,0,0,0,45.5,9.74219Z"></path><path d="M38,21a.99974.99974,0,0,0,1,1h5a1,1,0,0,0,0-2H40V14a1,1,0,0,0-2,0Z"></path></g></svg>